<svg id="Layer_1" data-name="Layer 1" xmlns="http://www.w3.org/2000/svg" xmlns:xlink="http://www.w3.org/1999/xlink" viewBox="0 0 1000 1000"><defs><style>.cls-1{fill:none;}.cls-2{fill:#3e8bcc;}.cls-3{fill:#fff;}.cls-4{clip-path:url(#clip-path);}.cls-5{fill:#f6f6f6;}</style><clipPath id="clip-path"><rect class="cls-1" x="249.48" y="470.23" width="416.3" height="433.65"/></clipPath></defs><title>Artboard 1</title><rect class="cls-2" x="0.54" width="1000" height="1000" rx="111.18" ry="111.18"/><path class="cls-3" d="M71.38,533.52c4.55-27.33,52-285.66,284.13-393.39,32.43-15,201.9-93.69,365.69-9.71C888.7,216.3,941.07,416.23,927.72,550.79c-10.53,106.13-63.87,191-66.6,190-2.42-.86,34.16-68.66,38.08-163.76,5.17-125.15-49.46-218.26-64.72-242.72-16.27-26.07-51.74-82.89-116.5-123-147.54-91.32-324.8-20.08-349.51-9.71A525.27,525.27,0,0,0,229.3,289C129.28,376.52,88.06,480.62,71.38,533.52Z"/><path class="cls-3" d="M90.42,619c4.1-24.6,46.77-257.1,255.72-354.05,29.19-13.54,181.71-84.32,329.12-8.74C826,333.47,873.14,513.41,861.12,634.52c-9.48,95.52-57.48,171.86-59.94,171-2.17-.77,30.74-61.79,34.28-147.39,4.65-112.63-44.52-196.44-58.25-218.44-14.65-23.47-46.57-74.6-104.85-110.68C539.56,246.81,380,310.93,357.79,320.26A472.74,472.74,0,0,0,232.55,398.9C142.52,477.68,105.43,571.36,90.42,619Z"/><path class="cls-3" d="M110,696.1C113.7,674,152.1,464.72,340.16,377.46c26.27-12.19,163.54-75.89,296.21-7.86C772,439.15,814.45,601.1,803.64,710.09c-8.53,86-51.73,154.68-53.95,153.89-2-.69,27.67-55.61,30.85-132.65,4.19-101.37-40.06-176.79-52.43-196.6-13.18-21.12-41.91-67.14-94.37-99.61-119.51-74-263.09-16.26-283.1-7.86A425.47,425.47,0,0,0,237.92,498C156.9,568.93,123.52,653.25,110,696.1Z"/><g class="cls-4"><path class="cls-5" d="M450.49,470.23c9,5,39.81,25.42,39.81,62.25,0,32.58-52.56,129.85-32.22,155.12L588.54,525s32.41,39.47,13,72.85c-20.2,34.69-70.14,75.4-90.14,105.65C499,722.18,505,732.21,505,732.21l158.11-86.6s12.7,37.67-17.39,64.77c-31.76,28.6-106.53,40-106.53,69.76H647.78S636.69,813,615.7,817.67c-18.51,4.09-58.11-6.73-76.78,10.09-19.7,17.75-41.87,76.12-108,76.12-44.49,0-79-32.06-100.38-74.2-24.75-48.69-52.48-72.12-81.07-78.09,0,0,15.54-36.8,56.58-36.8,56.42,0,80.55,92.44,123.12,92.44,12.27,0,25.3-6.38,25.3-24.46,0-19.62-28.29-35.88-36.16-41.36-18.75-13.06-33.7-33.8-24.07-68.61l56.24-202.56"/></g></svg>